# xmcd
#
# Track frame offsets: 
#        150
#        20175
#        33975
#        51225
#        66825
#        87675
#        105825
#        125325
#        147975
#        169725
#        192525
#        211425
#        229350
#        244950
#        265800
#        283725
#        302775
#
# Disc length: 4285 seconds
#
# Revision: 2
# Processed by: cddbd v1.5.2PL0 Copyright (c) Steve Scherf et al.
# Submitted via: ExactAudioCopy v1.3
#
DISCID=0710bb11
DTITLE=陳潔儀 - 心頭歌
DYEAR=2009
DGENRE=Pop
TTITLE0=等了又等 (雪狼湖版)
TTITLE1=原來只要為你活一天 (雪狼湖版)
TTITLE2=來夜方長 (陳潔儀+蘇永康)
TTITLE3=越吻越傷心 (陳潔儀+蘇永康)
TTITLE4=那天那夜
TTITLE5=麻醉
TTITLE6=分書
TTITLE7=變天
TTITLE8=炫耀
TTITLE9=輕挑
TTITLE10=蘿拉
TTITLE11=別讓我再見到你
TTITLE12=我真的愛錯 
TTITLE13=只哭一天
TTITLE14=手套情書 
TTITLE15=一個人的圓舞曲
TTITLE16=There's No Place I'd Rather Be (Singapore National Day Theme 
TTITLE16=Song 2007)
EXTD=
EXTT0=
EXTT1=
EXTT2=
EXTT3=
EXTT4=
EXTT5=
EXTT6=
EXTT7=
EXTT8=
EXTT9=
EXTT10=
EXTT11=
EXTT12=
EXTT13=
EXTT14=
EXTT15=
EXTT16=
PLAYORDER=
